HIERARCHY
ROOT SpineBase
{
  OFFSET 0.000000 0.000000 0.000000
  CHANNELS 6 Xposition Yposition Zposition Zrotation Xrotation Yrotation
  JOINT SpineMid
  {
    OFFSET -0.000000 32.665873 0.000000
    CHANNELS 3 Zrotation Xrotation Yrotation
    JOINT SpineShoulder
    {
      OFFSET 0.425892 24.080464 -0.551254
      CHANNELS 3 Zrotation Xrotation Yrotation
      JOINT Neck
      {
        OFFSET 0.173378 8.048196 -0.577613
        CHANNELS 3 Zrotation Xrotation Yrotation
        JOINT Head
        {
          OFFSET -5.540768 8.634130 4.545100
          CHANNELS 3 Zrotation Xrotation Yrotation
          End Site
          {
            OFFSET 0 0 0
          }
        }
      }
      JOINT ShoulderLeft
      {
        OFFSET -5.098003 -5.373882 -19.338765
        CHANNELS 3 Zrotation Xrotation Yrotation
        JOINT ElbowLeft
        {
          OFFSET -0.686664 -22.883034 0.336483
          CHANNELS 3 Zrotation Xrotation Yrotation
          JOINT WristLeft
          {
            OFFSET 2.959660 17.307064 -10.948497
            CHANNELS 3 Zrotation Xrotation Yrotation
            JOINT HandLeft
            {
              OFFSET 1.567893 2.579433 7.987508
              CHANNELS 3 Zrotation Xrotation Yrotation
              JOINT HandTipLeft
              {
                OFFSET -0.322025 3.657053 -0.577123
                CHANNELS 3 Zrotation Xrotation Yrotation
                End Site
                {
                  OFFSET 0 0 0
                }
              }
              JOINT ThumbLeft
              {
                OFFSET -1.924945 1.281672 -1.122591
                CHANNELS 3 Zrotation Xrotation Yrotation
                End Site
                {
                  OFFSET 0 0 0
                }
              }
            }
          }
        }
      }
      JOINT ShoulderRight
      {
        OFFSET 6.737989 -3.742973 -11.376419
        CHANNELS 3 Zrotation Xrotation Yrotation
        JOINT ElbowRight
        {
          OFFSET -8.142394 -18.652940 -8.598517
          CHANNELS 3 Zrotation Xrotation Yrotation
          JOINT WristRight
          {
            OFFSET -11.956578 -17.873694 -0.735848
            CHANNELS 3 Zrotation Xrotation Yrotation
            JOINT HandRight
            {
              OFFSET -3.074676 -2.762037 -0.967210
              CHANNELS 3 Zrotation Xrotation Yrotation
              JOINT HandTipRight
              {
                OFFSET -4.531158 -4.613488 -3.429335
                CHANNELS 3 Zrotation Xrotation Yrotation
                End Site
                {
                  OFFSET 0 0 0
                }
              }
              JOINT ThumbRight
              {
                OFFSET 3.177073 -1.482994 -2.948387
                CHANNELS 3 Zrotation Xrotation Yrotation
                End Site
                {
                  OFFSET 0 0 0
                }
              }
            }
          }
        }
      }
    }
  }
  JOINT HipLeft
  {
    OFFSET -5.872113 -0.377287 -4.885704
    CHANNELS 3 Zrotation Xrotation Yrotation
    JOINT KneeLeft
    {
      OFFSET -29.500358 11.450615 -1.302959
      CHANNELS 3 Zrotation Xrotation Yrotation
      JOINT AnkleLeft
      {
        OFFSET 13.407415 -30.615579 -25.660280
        CHANNELS 3 Zrotation Xrotation Yrotation
        JOINT FootLeft
        {
          OFFSET 4.842380 -2.911602 -11.304480
          CHANNELS 3 Zrotation Xrotation Yrotation
          End Site
          {
            OFFSET 0 0 0
          }
        }
      }
    }
  }
  JOINT HipRight
  {
    OFFSET 6.025593 2.272657 -1.745480
    CHANNELS 3 Zrotation Xrotation Yrotation
    JOINT KneeRight
    {
      OFFSET -33.451847 3.529402 -24.811177
      CHANNELS 3 Zrotation Xrotation Yrotation
      JOINT AnkleRight
      {
        OFFSET 19.572201 -23.247970 -4.823165
        CHANNELS 3 Zrotation Xrotation Yrotation
        JOINT FootRight
        {
          OFFSET -8.711508 -6.269392 -6.818304
          CHANNELS 3 Zrotation Xrotation Yrotation
          End Site
          {
            OFFSET 0 0 0
          }
        }
      }
    }
  }
}
MOTION
Frames: 9
Frame Time: 0.033333
-16.442161 30.219056 371.813654 -1.627124 1.698906 15.847686 1.102178 -2.078167 -15.803568 0.437938 -1.082066 0.058842 -3.690197 -7.029998 -3.939778 0.000000 0.000000 0.000000 -86.697987 45.075469 39.782077 170.774455 -35.776789 123.107749 -85.254551 -55.095521 -105.541529 28.744162 71.787235 -20.271710 0.000000 0.000000 0.000000 0.000000 0.000000 0.000000 -3.692759 29.554695 -9.148265 -56.907581 -17.296269 -17.329363 16.663805 3.357322 6.494242 24.332999 0.552781 1.952150 0.000000 0.000000 0.000000 0.000000 0.000000 0.000000 -7.060502 -4.985323 -32.516699 10.664044 -5.964691 7.692739 -13.683095 4.323239 60.774722 0.000000 0.000000 0.000000 4.872505 -6.465880 -13.404222 -2.893491 7.443583 0.924451 -4.762887 -2.403328 -2.146608 0.000000 0.000000 0.000000
-17.004468 29.434556 371.644793 -0.691431 1.741193 11.269152 1.373490 -1.442490 -11.212580 0.664008 -0.987260 0.129691 -3.290440 -7.376507 -4.534701 0.000000 0.000000 0.000000 -106.557274 54.666400 63.677714 -176.393221 -30.309990 138.036332 -56.210690 -83.471208 -69.387589 -18.801292 46.163133 10.462670 0.000000 0.000000 0.000000 0.000000 0.000000 0.000000 -1.451667 32.655315 -12.903778 -69.091037 -9.064887 -23.283630 13.897374 9.660458 6.179903 22.029717 1.459098 10.672427 0.000000 0.000000 0.000000 0.000000 0.000000 0.000000 -10.566468 -4.348841 -28.648465 14.246469 -7.657431 7.020904 -14.856852 8.518392 64.667794 0.000000 0.000000 0.000000 4.562661 -6.161133 -9.431935 -1.853517 7.800813 1.282935 -8.368970 -1.903404 -0.496382 0.000000 0.000000 0.000000
-17.665564 29.022400 371.552427 0.463597 0.534738 5.529624 1.586857 -1.198319 -5.444706 0.518406 -0.684846 0.173103 -3.654457 -8.287059 -6.140381 0.000000 0.000000 0.000000 -140.232308 57.647267 104.406447 -171.593233 -23.557478 148.597610 91.634248 -71.120231 86.464281 -33.476617 46.472439 0.311240 0.000000 0.000000 0.000000 0.000000 0.000000 0.000000 -1.490734 37.157000 -15.055853 -76.153300 0.994578 -27.623625 15.028162 19.985851 5.195578 15.024374 -17.900568 25.067686 0.000000 0.000000 0.000000 0.000000 0.000000 0.000000 -12.140976 -3.554781 -22.043324 15.709809 -8.547631 5.707824 -15.781948 12.513775 63.228675 0.000000 0.000000 0.000000 3.540778 -3.973139 -4.435886 -2.311690 8.068253 2.666426 -7.099758 -2.996842 -0.992115 0.000000 0.000000 0.000000
-18.140938 28.994950 371.607905 1.479965 -1.868203 -2.688906 1.905665 -0.452874 2.816524 0.297659 -0.120763 0.194974 -5.334622 -11.054649 -8.882429 0.000000 0.000000 0.000000 -159.710929 55.786228 130.887944 -170.156248 -25.721469 156.893942 95.437692 -56.092181 97.280574 -35.322934 52.394304 -13.012779 0.000000 0.000000 0.000000 0.000000 0.000000 0.000000 -1.437519 38.345874 -15.827534 -81.638600 8.567783 -27.840068 19.728927 24.574597 5.531900 1.092029 -20.695547 23.944318 0.000000 0.000000 0.000000 0.000000 0.000000 0.000000 -10.385141 -2.004616 -9.378256 14.454184 -7.783186 1.851104 -15.767087 7.226270 58.225162 0.000000 0.000000 0.000000 3.193905 -1.483481 2.194190 -2.336022 8.357794 3.966848 -7.802179 -2.359137 -1.229310 0.000000 0.000000 0.000000
-18.470019 29.183828 371.610781 2.803050 -4.358040 -2.938775 1.501792 -0.098165 3.172805 0.077101 0.436912 0.203226 -8.565613 -16.295917 -13.246768 0.000000 0.000000 0.000000 -166.129505 48.517622 135.433990 -164.935412 -29.006983 154.944673 84.438844 -45.258794 92.285289 -51.142004 48.763172 -7.505067 0.000000 0.000000 0.000000 0.000000 0.000000 0.000000 -5.256503 39.185549 -13.210234 -86.227730 14.925083 -26.493764 23.278623 25.922883 7.693274 -5.543685 -13.943649 21.175416 0.000000 0.000000 0.000000 0.000000 0.000000 0.000000 -11.818662 0.347780 -8.472701 14.954691 -7.799358 1.275309 -15.876659 6.780938 56.482407 0.000000 0.000000 0.000000 3.083155 -0.140107 1.319960 -2.009044 8.758463 3.950801 -10.611700 -0.771749 -0.218253 0.000000 0.000000 0.000000
-19.169882 30.152221 371.227629 3.902605 -6.300806 1.143512 1.005273 -0.259842 -0.745527 -0.170990 0.733526 0.215217 -16.698741 -27.858835 -23.572433 0.000000 0.000000 0.000000 -165.744451 46.215147 133.128787 -162.260634 -38.486972 152.516312 83.478001 -39.350968 94.717284 -75.852598 39.830837 10.678583 0.000000 0.000000 0.000000 0.000000 0.000000 0.000000 -5.565039 35.364693 -11.226216 -94.139072 20.388386 -20.197181 20.064762 14.306956 11.455680 -1.923840 2.453821 20.851946 0.000000 0.000000 0.000000 0.000000 0.000000 0.000000 -12.805675 2.439711 -14.021159 15.007747 -7.450227 2.910914 -15.544740 6.966032 55.504839 0.000000 0.000000 0.000000 3.957345 0.171071 -2.257596 -2.394394 9.834328 2.712982 -12.483323 -0.777421 1.053940 0.000000 0.000000 0.000000
-20.317885 30.910295 371.703060 4.912755 -7.081682 3.879649 0.861794 -0.128886 -3.366221 -0.177842 0.804966 0.249877 -26.037681 -34.043280 -30.413493 0.000000 0.000000 0.000000 -161.237392 49.887381 127.219371 -163.857183 -52.218389 150.892838 83.612792 -37.503021 97.551769 -89.171362 40.525348 23.992020 0.000000 0.000000 0.000000 0.000000 0.000000 0.000000 -0.169384 28.764616 -13.159800 -107.495277 22.062158 -13.124143 18.364194 2.607257 13.151060 3.539745 17.309538 20.807639 0.000000 0.000000 0.000000 0.000000 0.000000 0.000000 -13.873484 2.782369 -19.931972 15.067874 -7.166428 5.893993 -16.143437 12.109565 57.054147 0.000000 0.000000 0.000000 4.985831 -1.403352 -6.916404 -2.717222 11.431185 3.739375 -16.424508 -0.492474 3.459160 0.000000 0.000000 0.000000
-21.593405 31.596125 372.263913 5.665876 -5.993520 5.824256 0.652228 -0.238187 -5.298413 -0.164468 0.806141 0.268292 -27.821960 -34.792958 -30.531361 0.000000 0.000000 0.000000 -148.574579 57.398010 113.485689 -171.649907 -64.895292 146.180449 62.112187 -33.054585 85.001715 -71.603378 44.519794 -3.209563 0.000000 0.000000 0.000000 0.000000 0.000000 0.000000 6.312352 18.509352 -14.111931 -121.649141 20.197450 -4.984192 23.045735 -9.009597 14.551870 6.846245 35.864485 17.750793 0.000000 0.000000 0.000000 0.000000 0.000000 0.000000 -14.994406 1.205034 -25.618739 15.033136 -6.594347 9.222689 -14.306609 9.429724 54.092891 0.000000 0.000000 0.000000 5.009921 -4.112739 -10.881043 -3.586792 12.278098 5.496770 -17.733411 -0.439790 4.838265 0.000000 0.000000 0.000000
-22.743867 32.239453 373.083996 5.862768 -3.810846 8.143450 0.526378 -0.292335 -7.735966 -0.079459 0.771862 0.266684 -19.816707 -29.910276 -23.630245 0.000000 0.000000 0.000000 -108.579324 64.429213 73.208385 136.025919 -77.235887 101.566216 70.695544 -54.686834 69.712573 -49.589608 36.511731 6.460477 0.000000 0.000000 0.000000 0.000000 0.000000 0.000000 13.740958 7.339595 -14.092686 -132.831983 16.144479 1.271428 29.157135 -13.429753 15.974272 6.221724 51.863995 13.481910 0.000000 0.000000 0.000000 0.000000 0.000000 0.000000 -15.976662 -1.472324 -32.789796 14.757261 -5.537857 13.564754 -12.687221 7.767477 51.873384 0.000000 0.000000 0.000000 5.241685 -8.209174 -15.368499 -4.483440 13.660299 7.717558 -19.498741 -0.608288 5.942996 0.000000 0.000000 0.000000
